HIERARCHY
ROOT Hips
{
  OFFSET -31.0397 87.5594 -96.7521
  CHANNELS 6 Xposition Yposition Zposition Zrotation Xrotation Yrotation
  JOINT RightUpLeg
  {
    OFFSET -8.9458 -8.66707 0.101652
    CHANNELS 3 Zrotation Xrotation Yrotation
    JOINT RightLeg
    {
      OFFSET 0 -44.4227 1.3727
      CHANNELS 3 Zrotation Xrotation Yrotation
      JOINT RightFoot
      {
        OFFSET 0.253549 -42.0924 -1.46059
        CHANNELS 3 Zrotation Xrotation Yrotation
        JOINT RightToes
        {
          OFFSET 0.04 -4.41509 8.4991
          CHANNELS 3 Zrotation Xrotation Yrotation
          End Site
          {
            OFFSET -0.08 -0.137448 9.77979
          }
        }
      }
    }
  }
  JOINT Spine
  {
    OFFSET 0 11.8905 0
    CHANNELS 3 Zrotation Xrotation Yrotation
    JOINT Spine1
    {
      OFFSET 0 25.6574 0.127663
      CHANNELS 3 Zrotation Xrotation Yrotation
      JOINT HEad
      {
        OFFSET 0 8.73416 0.011341
        CHANNELS 3 Zrotation Xrotation Yrotation
        End Site
        {
          OFFSET -0.29 12.7742 2.51395
        }
      }
      JOINT LeftShoulder1
      {
        OFFSET 8.99 -0.362252 -0.22
        CHANNELS 3 Zrotation Xrotation Yrotation
        JOINT LeftArm
        {
          OFFSET 10.2827 -0.00338 0.322123
          CHANNELS 3 Zrotation Xrotation Yrotation
          JOINT LeftForeArm
          {
            OFFSET 32.7669 0.099144 -1.42434
            CHANNELS 3 Zrotation Xrotation Yrotation
            JOINT LeftHand
            {
              OFFSET 27.5643 0.085362 1.02216
              CHANNELS 3 Zrotation Xrotation Yrotation
              End Site
              {
                OFFSET 16.7443 -0.6 1.50291
              }
            }
          }
        }
      }
      JOINT RightShoulder
      {
        OFFSET -8.99 -0.362252 -0.22
        CHANNELS 3 Zrotation Xrotation Yrotation
        JOINT RightArm
        {
          OFFSET -10.2827 -0.00338 0.322123
          CHANNELS 3 Zrotation Xrotation Yrotation
          JOINT RightForeArm
          {
            OFFSET -32.8971 0.099144 -1.42434
            CHANNELS 3 Zrotation Xrotation Yrotation
            JOINT RightHand
            {
              OFFSET -27.4921 0.085362 1.02216
              CHANNELS 3 Zrotation Xrotation Yrotation
              End Site
              {
                OFFSET -16.6312 -0.6 1.50291
              }
            }
          }
        }
      }
    }
  }
  JOINT LeftUpLeg
  {
    OFFSET 8.9458 -8.66707 0.101652
    CHANNELS 3 Zrotation Xrotation Yrotation
    JOINT LeftLeg
    {
      OFFSET 0 -44.4227 1.3727
      CHANNELS 3 Zrotation Xrotation Yrotation
      JOINT LeftFoot
      {
        OFFSET -0.253549 -42.0924 -1.46059
        CHANNELS 3 Zrotation Xrotation Yrotation
        JOINT LeftToes
        {
          OFFSET -0.04 -4.41509 8.4991
          CHANNELS 3 Zrotation Xrotation Yrotation
          End Site
          {
            OFFSET 0.08 -0.047448 9.77979
          }
        }
      }
    }
  }
}
MOTION
Frames:	8
Frame Time:	0.0166667
-42.8712 94.9857 -93.943 1.98082 12.2376 171.049 -28.774 2.73729 21.2144 41.1155 2.68181 -40.2677 -31.1546 -2.01398 -1.71611 0.0462048 0.000533403 0.662642 -1.62616 22.6865 1.50163 0.00209847 -0.00452552 0.000710063 -2.64113 13.4157 10.4735 1.98785e-016 0 1.59028e-015 -175.487 -66.5124 -138.702 -111.973 58.2631 -10.1 20.1104 21.4184 -14.9825 14.3075 8.89795 -4.09582 106.804 -9.93611 68.7246 45.9973 53.0821 73.5673 23.9253 25.4333 0.810655 19.8822 -11.3009 -16.5105 -23.1771 18.2568 63.697 12.6338 -1.35296 0.82137 -1.53617e-009 1.56004e-007 -4.85536e-009 
-42.8855 94.7763 -93.9891 1.45155 12.9485 172.321 -28.0751 1.88233 22.4868 40.5744 4.68917 -44.594 -29.9383 -1.48717 -1.56969 0.0462048 0.000533403 0.662642 -1.28522 22.8142 1.44686 0.00209847 -0.00452552 0.000710063 -3.59467 13.8942 13.6466 3.97569e-016 0 7.95139e-016 -174.243 -67.2564 -137.844 -106.202 62.673 -12.6639 18.9414 16.2227 -15.9043 14.3405 9.42208 -4.79383 106.56 -9.78366 68.7648 45.207 53.5603 73.9973 23.335 24.9281 1.45582 21.2883 -10.1939 -18.3317 -23.2115 17.8701 65.6412 -1.72234 -2.09944 0.173609 -1.53616e-009 1.56004e-007 -4.85535e-009 
-42.9979 94.4019 -94.1342 0.987116 13.5892 173.643 -27.7745 1.02644 23.4967 40.6805 6.95742 -48.4359 -28.7373 -1.11045 -1.47246 0.0462048 0.000533403 0.662642 -0.848541 23.0225 1.25361 0.00209847 -0.00452552 0.000710063 -4.44876 14.1897 16.5492 0 0 -7.95139e-016 -173.267 -67.8287 -137.447 -101.993 64.9293 -15.2521 17.7465 13.4207 -16.2167 14.4014 9.81565 -5.28583 106.305 -9.59999 68.8178 44.2972 53.961 74.5118 22.8185 24.4954 2.041 21.7424 -9.83307 -20.0233 -23.0195 17.322 66.9874 1.78789 -2.58128 0.0398252 -1.53617e-009 1.56004e-007 -4.85536e-009 
-43.2113 93.9778 -94.3399 0.598569 14.1579 174.996 -27.625 0.254743 24.2411 41.0689 9.3935 -51.7239 -27.5274 -0.700827 -1.4023 0.0462048 0.000533403 0.662642 -0.299009 23.2885 0.944187 0.00209847 -0.00452552 0.000710063 -5.20631 14.3171 19.1695 -1.98785e-016 0 -0 -172.436 -68.2142 -137.382 -99.078 65.8562 -17.3688 17.2909 12.2425 -16.2753 14.4766 10.0837 -5.59766 106.068 -9.39267 68.8897 43.3341 54.2894 75.0609 22.3515 24.0998 2.59481 22.8293 -9.35706 -21.7532 -23.1733 17.0215 68.0474 -3.31326 -2.78185 -0.212133 -1.53617e-009 1.56004e-007 -4.85535e-009 
-43.5358 93.4775 -94.6129 0.287601 14.6587 176.366 -27.6276 -0.4716 24.7356 41.8449 11.9517 -54.5412 -26.3961 -0.323208 -1.3686 0.0462048 0.000533403 0.662642 0.37041 23.5904 0.538342 0.00209847 -0.00452552 0.000710063 -5.87184 14.2998 21.4984 1.49089e-016 0 7.95139e-016 -171.673 -68.4308 -137.552 -97.0618 65.9817 -19.0013 16.7779 11.8983 -16.2097 14.5539 10.2363 -5.75927 105.865 -9.17132 68.9851 42.382 54.5503 75.5994 21.9746 23.7515 3.06539 23.7178 -9.29722 -23.3926 -23.4065 16.8439 68.9284 -4.00274 -3.04363 -0.335644 -1.53616e-009 1.56004e-007 -4.85536e-009 
-43.9686 92.9247 -94.9407 0.0489163 15.0977 177.745 -27.724 -1.15906 24.9985 42.9337 14.5584 -56.9402 -25.3794 0.0312371 -1.36834 0.0462048 0.000533403 0.662642 1.15403 23.9067 0.0558367 0.00209847 -0.00452552 0.000710063 -6.44639 14.1644 23.5317 -9.93923e-017 0 3.97569e-016 -170.955 -68.5314 -137.936 -95.424 65.5929 -20.4885 16.9193 30.6838 -13.9572 14.6131 10.2899 -5.80417 105.713 -8.93873 69.1064 41.4849 54.7509 76.1008 21.671 23.4408 3.4613 24.711 -9.37595 -24.9831 -23.69 16.8045 69.6669 -6.59943 -3.20519 -0.521509 -1.53616e-009 1.56004e-007 -4.85536e-009 
-44.4998 92.3397 -95.3107 -0.127723 15.4798 179.127 -27.876 -1.80975 25.0526 44.2553 17.152 -58.9722 -24.4943 0.357852 -1.39674 0.0462048 0.000533403 0.662642 2.03231 24.2172 -0.483007 0.00209847 -0.00452552 0.000710063 -6.92794 13.9353 25.2719 2.98177e-016 -1.59028e-015 9.93923e-017 -170.206 -68.5561 -138.408 -93.9004 64.938 -21.9393 16.4511 14.8218 -15.62 14.6288 10.2666 -5.7667 105.631 -8.68716 69.2538 40.6596 54.9034 76.5596 21.453 23.1747 3.75355 25.6143 -9.72714 -26.4715 -23.9158 16.9397 70.3239 -8.01974 -3.36588 -0.660549 -1.53616e-009 1.56004e-007 -4.85536e-009 
-45.1362 91.7358 -95.7097 -0.2491 15.8061 -179.491 -28.0759 -2.42161 24.9314 45.7201 19.6822 -60.6745 -23.7176 0.659271 -1.43804 0.0462048 0.000533403 0.662642 2.97814 24.5046 -1.05745 0.00209847 -0.00452552 0.000710063 -7.31217 13.6313 26.728 3.72721e-016 0 4.96962e-017 -169.274 -68.512 -138.712 -92.4626 64.2869 -23.2207 16.4851 25.8413 -14.2745 14.5884 10.1874 -5.67119 105.63 -8.40785 69.4246 39.9027 55.0243 76.9801 21.2921 22.933 3.96559 26.2895 -10.2514 -27.884 -24.8624 16.8758 71.1728 -9.09458 -3.43612 -0.775122 -1.53616e-009 1.56004e-007 -4.85535e-009 
